<mxfile host="65bd71144e">
    <diagram id="utflnA8hXOal5pxschJM" name="PÃ¡gina-1">
        <mxGraphModel dx="1034" dy="916" grid="1" gridSize="10" guides="1" tooltips="1" connect="1" arrows="1" fold="1" page="1" pageScale="1" pageWidth="1169" pageHeight="1654" math="0" shadow="0">
            <root>
                <mxCell id="0"/>
                <mxCell id="1" parent="0"/>
                <mxCell id="4" value="" style="edgeStyle=none;html=1;" edge="1" parent="1" source="2" target="3">
                    <mxGeometry relative="1" as="geometry"/>
                </mxCell>
                <mxCell id="6" value="" style="edgeStyle=none;html=1;" edge="1" parent="1" source="2" target="5">
                    <mxGeometry relative="1" as="geometry"/>
                </mxCell>
                <mxCell id="8" value="" style="edgeStyle=none;html=1;" edge="1" parent="1" source="2" target="7">
                    <mxGeometry relative="1" as="geometry"/>
                </mxCell>
                <mxCell id="2" value="EquipableItems" style="rounded=0;whiteSpace=wrap;html=1;fontSize=17;" vertex="1" parent="1">
                    <mxGeometry x="410" y="50" width="120" height="60" as="geometry"/>
                </mxCell>
                <mxCell id="10" value="" style="edgeStyle=none;html=1;" edge="1" parent="1" source="3" target="9">
                    <mxGeometry relative="1" as="geometry"/>
                </mxCell>
                <mxCell id="12" value="" style="edgeStyle=none;html=1;" edge="1" parent="1" source="3" target="11">
                    <mxGeometry relative="1" as="geometry"/>
                </mxCell>
                <mxCell id="3" value="Weapons" style="whiteSpace=wrap;html=1;rounded=0;fontSize=17;" vertex="1" parent="1">
                    <mxGeometry x="105" y="160" width="80" height="60" as="geometry"/>
                </mxCell>
                <mxCell id="14" value="" style="edgeStyle=none;html=1;" edge="1" parent="1" source="5" target="13">
                    <mxGeometry relative="1" as="geometry"/>
                </mxCell>
                <mxCell id="16" value="" style="edgeStyle=none;html=1;" edge="1" parent="1" source="5" target="15">
                    <mxGeometry relative="1" as="geometry"/>
                </mxCell>
                <mxCell id="18" value="" style="edgeStyle=none;html=1;" edge="1" parent="1" source="5" target="17">
                    <mxGeometry relative="1" as="geometry"/>
                </mxCell>
                <mxCell id="20" value="" style="edgeStyle=none;html=1;" edge="1" parent="1" source="5" target="19">
                    <mxGeometry relative="1" as="geometry"/>
                </mxCell>
                <mxCell id="34" value="" style="edgeStyle=none;html=1;" edge="1" parent="1" source="5" target="33">
                    <mxGeometry relative="1" as="geometry"/>
                </mxCell>
                <mxCell id="5" value="Protection" style="whiteSpace=wrap;html=1;rounded=0;fontSize=17;" vertex="1" parent="1">
                    <mxGeometry x="425" y="160" width="120" height="60" as="geometry"/>
                </mxCell>
                <mxCell id="22" value="" style="edgeStyle=none;html=1;" edge="1" parent="1" source="7" target="21">
                    <mxGeometry relative="1" as="geometry"/>
                </mxCell>
                <mxCell id="24" value="" style="edgeStyle=none;html=1;" edge="1" parent="1" source="7" target="23">
                    <mxGeometry relative="1" as="geometry"/>
                </mxCell>
                <mxCell id="26" value="" style="edgeStyle=none;html=1;" edge="1" parent="1" source="7" target="25">
                    <mxGeometry relative="1" as="geometry"/>
                </mxCell>
                <mxCell id="7" value="Acessories" style="whiteSpace=wrap;html=1;rounded=0;fontSize=17;" vertex="1" parent="1">
                    <mxGeometry x="775" y="160" width="120" height="60" as="geometry"/>
                </mxCell>
                <mxCell id="28" value="" style="edgeStyle=none;html=1;" edge="1" parent="1" source="9" target="27">
                    <mxGeometry relative="1" as="geometry"/>
                </mxCell>
                <mxCell id="32" value="" style="edgeStyle=none;html=1;" edge="1" parent="1" source="9" target="31">
                    <mxGeometry relative="1" as="geometry"/>
                </mxCell>
                <mxCell id="9" value="Ranged" style="whiteSpace=wrap;html=1;rounded=0;fontSize=17;" vertex="1" parent="1">
                    <mxGeometry x="70" y="400" width="60" height="60" as="geometry"/>
                </mxCell>
                <mxCell id="11" value="Melee" style="whiteSpace=wrap;html=1;rounded=0;fontSize=17;" vertex="1" parent="1">
                    <mxGeometry x="170" y="400" width="60" height="60" as="geometry"/>
                </mxCell>
                <mxCell id="13" value="Armor&lt;br style=&quot;font-size: 17px;&quot;&gt;" style="whiteSpace=wrap;html=1;rounded=0;fontSize=17;" vertex="1" parent="1">
                    <mxGeometry x="270" y="400" width="60" height="60" as="geometry"/>
                </mxCell>
                <mxCell id="15" value="Legs" style="whiteSpace=wrap;html=1;rounded=0;fontSize=17;" vertex="1" parent="1">
                    <mxGeometry x="370" y="400" width="60" height="60" as="geometry"/>
                </mxCell>
                <mxCell id="17" value="Boots" style="whiteSpace=wrap;html=1;rounded=0;fontSize=17;" vertex="1" parent="1">
                    <mxGeometry x="470" y="400" width="60" height="60" as="geometry"/>
                </mxCell>
                <mxCell id="19" value="Helmet" style="whiteSpace=wrap;html=1;rounded=0;fontSize=17;" vertex="1" parent="1">
                    <mxGeometry x="570" y="400" width="60" height="60" as="geometry"/>
                </mxCell>
                <mxCell id="21" value="Rings" style="whiteSpace=wrap;html=1;rounded=0;fontSize=17;" vertex="1" parent="1">
                    <mxGeometry x="770" y="400" width="60" height="60" as="geometry"/>
                </mxCell>
                <mxCell id="23" value="Necklace" style="whiteSpace=wrap;html=1;rounded=0;fontSize=17;" vertex="1" parent="1">
                    <mxGeometry x="870" y="400" width="60" height="60" as="geometry"/>
                </mxCell>
                <mxCell id="25" value="Misc." style="whiteSpace=wrap;html=1;rounded=0;fontSize=17;" vertex="1" parent="1">
                    <mxGeometry x="970" y="400" width="60" height="60" as="geometry"/>
                </mxCell>
                <mxCell id="27" value="Wands" style="whiteSpace=wrap;html=1;rounded=0;fontSize=17;" vertex="1" parent="1">
                    <mxGeometry x="20" y="590" width="60" height="60" as="geometry"/>
                </mxCell>
                <mxCell id="31" value="Bow" style="whiteSpace=wrap;html=1;rounded=0;fontSize=17;" vertex="1" parent="1">
                    <mxGeometry x="120" y="590" width="60" height="60" as="geometry"/>
                </mxCell>
                <mxCell id="36" value="" style="edgeStyle=none;html=1;" edge="1" parent="1" source="33" target="35">
                    <mxGeometry relative="1" as="geometry"/>
                </mxCell>
                <mxCell id="38" value="" style="edgeStyle=none;html=1;" edge="1" parent="1" source="33" target="37">
                    <mxGeometry relative="1" as="geometry"/>
                </mxCell>
                <mxCell id="33" value="Shield" style="whiteSpace=wrap;html=1;rounded=0;fontSize=17;" vertex="1" parent="1">
                    <mxGeometry x="670" y="400" width="60" height="60" as="geometry"/>
                </mxCell>
                <mxCell id="35" value="Two Handed" style="whiteSpace=wrap;html=1;rounded=0;fontSize=17;" vertex="1" parent="1">
                    <mxGeometry x="620" y="590" width="60" height="60" as="geometry"/>
                </mxCell>
                <mxCell id="37" value="One Handed" style="whiteSpace=wrap;html=1;rounded=0;fontSize=17;" vertex="1" parent="1">
                    <mxGeometry x="720" y="590" width="60" height="60" as="geometry"/>
                </mxCell>
                <mxCell id="41" value="&lt;h1&gt;Equipable&lt;/h1&gt;&lt;p&gt;&lt;font style=&quot;font-size: 16px&quot;&gt;Will have methods like equip() and look() that must not be implemented in this level&lt;/font&gt;&lt;/p&gt;" style="text;html=1;strokeColor=none;fillColor=none;spacing=5;spacingTop=-20;whiteSpace=wrap;overflow=hidden;rounded=0;" vertex="1" parent="1">
                    <mxGeometry x="540" y="50" width="320" height="120" as="geometry"/>
                </mxCell>
                <mxCell id="42" value="&lt;h1&gt;Weapon, Protection and accessories&lt;/h1&gt;&lt;p&gt;&lt;font style=&quot;font-size: 17px&quot;&gt;Each one will have some specific method, like, getDamageByContact() for the weapons or getDamageReduction() to ProtectItems. These method can be already implemented and called by the subclasses&lt;/font&gt;&lt;/p&gt;" style="text;html=1;strokeColor=none;fillColor=none;spacing=5;spacingTop=-20;whiteSpace=wrap;overflow=hidden;rounded=0;" vertex="1" parent="1">
                    <mxGeometry x="530" y="240" width="550" height="120" as="geometry"/>
                </mxCell>
                <mxCell id="43" value="&lt;h1&gt;3rd abstraction level&lt;/h1&gt;&lt;p&gt;&lt;font style=&quot;font-size: 17px&quot;&gt;in this level, most of the methods needed will be implemented, leaving to the lower levels just the most specific methods.&lt;/font&gt;&lt;/p&gt;" style="text;html=1;strokeColor=none;fillColor=none;spacing=5;spacingTop=-20;whiteSpace=wrap;overflow=hidden;rounded=0;" vertex="1" parent="1">
                    <mxGeometry x="790" y="480" width="260" height="130" as="geometry"/>
                </mxCell>
            </root>
        </mxGraphModel>
    </diagram>
</mxfile>